Genre:Animation | Sci-Fi
Language:English  http://www.imdb.com/title/tt1384961/
Source:DVD
 
http://www.starshare.ro/bitbucket/vlcsnap2010-09-20-19h09m58s70.jpg 
http://www.starshare.ro/bitbucket/vlcsnap2010-09-20-19h10m02s117.jpg 
http://www.starshare.ro/bitbucket/vlcsnap2010-09-20-19h10m15s237.jpg 
http://www.starshare.ro/bitbucket/vlcsnap2010-09-20-19h10m20s39.jpg


General
Complete name :Godkiller.2010.DvDRip.H264.Feel-Free
Format : MPEG-4
Format profile : Base Media
Codec ID : isom
File size : 1.13 GiB
Duration : 1h 12mn
Overall bit rate : 2 237 Kbps
Video #1
ID : 1
Format : AVC
Format/Info : Advanced Video Codec
Format profile : Baseline@L5.1
Format settings, CABAC : No
Format settings, ReFrames : 1 frame
Codec ID : avc1
Codec ID/Info : Advanced Video Coding
Duration : 1h 12mn
Bit rate mode : Variable
Bit rate : 1 989 Kbps
Width : 652 pixels
Height : 352 pixels
Display aspect ratio : 1.852
Frame rate mode : Constant
Frame rate : 23.976 fps
Resolution : 24 bits
Colorimetry : 4:2:0
Scan type : Progressive
Bits/(Pixel*Frame) : 0.361
Stream size : 1.01 GiB (89%)
Audio #2
ID : 2
Format : AAC
Format/Info : Advanced Audio Codec
Format version : Version 4
Format profile : LC
Format settings, SBR : No
Codec ID : 40
Duration : 1h 12mn
Bit rate mode : Variable
Bit rate : 244 Kbps
Channel(s) : 6 channels
Channel positions : Front: L C R, Rear: L R, LFE
Sampling rate : 48.0 KHz
Resolution : 16 bits
Stream size : 126 MiB (11%)

Plot
About a 16-year-old boy's odyssey through a post-nuke wasteland as he searches for a new heart to save his dying sister
